<?xml version="1.0" encoding="UTF-8" standalone="no"?>
<!-- Uploaded to: SVG Repo, www.svgrepo.com, Transformed by: SVG Repo Mixer Tools -->

<svg
   width="16"
   height="16"
   viewBox="0 0 0.48 0.48000001"
   fill="none"
   version="1.1"
   id="svg5"
   sodipodi:docname="OWDBPosition.svg"
   xml:space="preserve"
   inkscape:version="1.4.2 (f4327f4, 2025-05-13)"
   xmlns:inkscape="http://www.inkscape.org/namespaces/inkscape"
   xmlns:sodipodi="http://sodipodi.sourceforge.net/DTD/sodipodi-0.dtd"
   xmlns:xlink="http://www.w3.org/1999/xlink"
   xmlns="http://www.w3.org/2000/svg"
   xmlns:svg="http://www.w3.org/2000/svg"><defs
     id="defs5"><rect
       x="-5.71066"
       y="3.891709"
       width="7.1489003"
       height="13.705584"
       id="rect40" /><inkscape:path-effect
       effect="bspline"
       id="path-effect40"
       is_visible="true"
       lpeversion="1.3"
       weight="33.333333"
       steps="2"
       helper_size="0"
       apply_no_weight="true"
       apply_with_weight="true"
       only_selected="false"
       uniform="false" /><inkscape:path-effect
       effect="bspline"
       id="path-effect39"
       is_visible="true"
       lpeversion="1.3"
       weight="33.333333"
       steps="2"
       helper_size="0"
       apply_no_weight="true"
       apply_with_weight="true"
       only_selected="false"
       uniform="false" /><inkscape:path-effect
       effect="bspline"
       id="path-effect38"
       is_visible="true"
       lpeversion="1.3"
       weight="33.333333"
       steps="2"
       helper_size="0"
       apply_no_weight="true"
       apply_with_weight="true"
       only_selected="false"
       uniform="false" /><inkscape:path-effect
       effect="bspline"
       id="path-effect37"
       is_visible="true"
       lpeversion="1.3"
       weight="33.333333"
       steps="2"
       helper_size="0"
       apply_no_weight="true"
       apply_with_weight="true"
       only_selected="false"
       uniform="false" /><inkscape:path-effect
       effect="bspline"
       id="path-effect36"
       is_visible="true"
       lpeversion="1.3"
       weight="33.333333"
       steps="2"
       helper_size="0"
       apply_no_weight="true"
       apply_with_weight="true"
       only_selected="false"
       uniform="false" /><inkscape:path-effect
       effect="bspline"
       id="path-effect35"
       is_visible="true"
       lpeversion="1.3"
       weight="33.333333"
       steps="2"
       helper_size="0"
       apply_no_weight="true"
       apply_with_weight="true"
       only_selected="false"
       uniform="false" /><inkscape:path-effect
       effect="bspline"
       id="path-effect34"
       is_visible="true"
       lpeversion="1.3"
       weight="33.333333"
       steps="2"
       helper_size="0"
       apply_no_weight="true"
       apply_with_weight="true"
       only_selected="false"
       uniform="false" /><inkscape:perspective
       sodipodi:type="inkscape:persp3d"
       inkscape:vp_x="0 : 0.24 : 1"
       inkscape:vp_y="0 : 1000 : 0"
       inkscape:vp_z="0.48 : 0.24 : 1"
       inkscape:persp3d-origin="0.24 : 0.16 : 1"
       id="perspective19" /><rect
       x="-5.71066"
       y="3.891709"
       width="7.1489003"
       height="13.705584"
       id="rect41" /><linearGradient
       id="swatch1"
       inkscape:swatch="solid"><stop
         style="stop-color:#0039f8;stop-opacity:1;"
         offset="0"
         id="stop1" /></linearGradient><linearGradient
       inkscape:collect="always"
       xlink:href="#swatch1"
       id="linearGradient12"
       gradientUnits="userSpaceOnUse"
       x1="0"
       y1="32"
       x2="64"
       y2="32" /><linearGradient
       inkscape:collect="always"
       xlink:href="#swatch1"
       id="linearGradient13"
       gradientUnits="userSpaceOnUse"
       x1="0"
       y1="32"
       x2="64"
       y2="32" /><linearGradient
       inkscape:collect="always"
       xlink:href="#swatch1"
       id="linearGradient15"
       gradientUnits="userSpaceOnUse"
       x1="0"
       y1="32"
       x2="64"
       y2="32" /><linearGradient
       inkscape:collect="always"
       xlink:href="#swatch1"
       id="linearGradient16"
       gradientUnits="userSpaceOnUse"
       x1="0"
       y1="32"
       x2="64"
       y2="32" /></defs><sodipodi:namedview
     id="namedview5"
     pagecolor="#ffffff"
     bordercolor="#000000"
     borderopacity="0.25"
     inkscape:showpageshadow="2"
     inkscape:pageopacity="0.0"
     inkscape:pagecheckerboard="0"
     inkscape:deskcolor="#d1d1d1"
     inkscape:zoom="33.432008"
     inkscape:cx="7.5227309"
     inkscape:cy="8.8986578"
     inkscape:window-width="1920"
     inkscape:window-height="1009"
     inkscape:window-x="1912"
     inkscape:window-y="-8"
     inkscape:window-maximized="1"
     inkscape:current-layer="svg5" /><ellipse
     style="fill:#55d400;stroke-width:0.000766582"
     id="path6"
     cx="0.23927476"
     cy="0.24051666"
     rx="0.23138277"
     ry="0.23130405" /><g
     style="fill:url(#linearGradient15);stroke-width:0.998054;stroke-dasharray:none"
     id="g5"
     transform="matrix(0.00728046,0,0,0.00695877,0.00629998,0.01783585)"><g
       id="SVGRepo_bgCarrier-0"
       stroke-width="0"
       style="fill:url(#linearGradient12);stroke-width:0.998054;stroke-dasharray:none" /><g
       id="SVGRepo_tracerCarrier-9"
       stroke-linecap="round"
       stroke-linejoin="round"
       style="fill:url(#swatch1);stroke-width:0.998054;stroke-dasharray:none" /><g
       id="SVGRepo_iconCarrier-4"
       style="fill:url(#linearGradient16);stroke-width:0.998054;stroke-dasharray:none"> <path
   fill="#2d6dd9"
   d="M 32,0 C 15.776,0 2.381,12.077 0.292,27.729 0.29,27.745 0.288,27.76 0.286,27.776 0.23,28.197 0.18,28.619 0.14,29.045 0.121,29.242 0.111,29.441 0.095,29.639 0.074,29.919 0.051,30.199 0.037,30.481 0.014,30.983 0,31.49 0,32 0,49.673 14.327,64 32,64 49.673,64 64,49.673 64,32 64,14.327 49.673,0 32,0 Z m 1.362,58.502 c -0.72,0.787 -1.901,1.414 -2.675,0.67 -0.653,-0.644 -0.099,-1.44 0,-2.353 0.125,-1.065 -0.362,-2.345 0.666,-2.676 0.837,-0.259 1.468,0.322 2.009,1.012 0.825,1.02 0.877,2.371 0,3.347 z M 43.446,49.87 c -1.18,0.608 -2.006,0.494 -3.323,0.673 -2.454,0.309 -4.394,1.52 -6.333,0 -0.867,-0.695 -0.978,-1.451 -1.65,-2.341 -1.084,-1.364 -1.355,-3.879 -3.01,-3.322 -1.058,0.356 -1.026,1.415 -1.654,2.335 -0.81,1.156 -0.607,2.793 -2.005,2.993 -0.974,0.138 -1.499,-0.458 -2.321,-1 -0.922,-0.614 -1.104,-1.348 -2.002,-1.993 -0.934,-0.689 -1.69,-0.693 -2.654,-1.334 -0.694,-0.463 -0.842,-1.304 -1.673,-1.334 -0.751,-0.022 -1.289,0.346 -1.664,0.996 -0.701,1.214 -0.942,4.793 -2.988,4.665 C 10.653,50.105 7.411,46.699 6.175,45.881 5.77,45.608 5.395,45.33 5.017,45.118 3.188,41.362 2.126,37.166 2.02,32.733 2.634,32.218 3.259,31.964 3.839,31.24 4.766,30.11 4.32,28.733 5.512,27.905 c 0.886,-0.604 1.602,-0.507 2.669,-0.658 1.529,-0.222 2.491,-0.422 3.988,0 1.459,0.409 2.016,1.246 3.326,1.992 1.415,0.81 2.052,1.766 3.66,2.001 1.166,0.165 1.966,-0.901 2.988,-0.337 0.824,0.458 1.406,1.066 1.341,2.001 -0.1,1.218 -2.522,0.444 -2.659,1.662 -0.183,1.558 2.512,-0.194 3.992,0.33 0.974,0.355 2.241,0.294 2.325,1.334 0.081,1.156 -1.608,0.837 -2.657,1.335 -1.162,0.541 -1.771,0.996 -3.004,1.329 -1.125,0.298 -2.312,-0.628 -2.987,0.329 -0.53,0.742 -0.343,1.489 0,2.335 0.787,1.931 3.349,1.352 5.322,0.657 1.383,-0.488 1.641,-1.726 2.997,-2.329 1.438,-0.641 2.554,-1.335 3.981,-0.663 1.178,0.556 0.849,2.05 2.006,2.663 1.253,0.668 2.432,-0.729 3.663,0 0.957,0.569 0.887,1.521 1.655,2.327 0.894,0.942 1.41,1.702 2.668,2 1.286,0.299 2.072,-1.071 3.327,-0.671 0.965,0.315 1.755,0.68 1.987,1.672 0.365,1.42 -1.356,1.984 -2.654,2.656 z m 2.393,-16.029 c -1.154,1.16 -2.156,1.539 -3.771,1.893 -1.433,0.315 -3.443,1.438 -3.772,0 -0.251,-1.148 1.029,-1.558 1.893,-2.359 0.959,-0.895 1.854,-0.983 2.826,-1.892 0.87,-0.802 0.756,-2.031 1.893,-2.359 1.109,-0.32 2.182,-0.019 2.825,0.947 0.919,1.367 -0.727,2.61 -1.894,3.77 z m 14.15,-4.522 c -0.492,0.508 -0.462,1.044 -0.965,1.542 -0.557,0.539 -1.331,0.307 -1.738,0.968 -0.358,0.577 -0.13,1.057 -0.194,1.735 -0.041,0.387 -1.924,1.256 -2.313,0.385 -0.214,-0.481 0.281,-0.907 0,-1.353 -0.263,-0.401 -0.555,-0.195 -0.899,0.181 -0.359,0.388 -0.772,0.958 -1.221,1.172 -0.589,0.273 -0.196,-2.25 -0.395,-3.088 -0.146,-0.663 0.01,-1.08 0.198,-1.736 0.25,-0.91 0.938,-1.206 1.155,-2.125 0.194,-0.806 0.033,-1.295 0,-2.123 -0.039,-0.906 -0.015,-1.427 -0.188,-2.314 -0.192,-0.937 -0.252,-1.525 -0.771,-2.316 -0.418,-0.624 -0.694,-1.001 -1.354,-1.352 -0.16,-0.088 -0.31,-0.146 -0.452,-0.191 -0.34,-0.113 -0.659,-0.128 -1.098,-0.193 -0.888,-0.132 -1.522,0.432 -2.314,0 -0.462,-0.255 -0.606,-0.575 -0.96,-0.967 -0.404,-0.434 -0.511,-0.789 -0.967,-1.158 -0.341,-0.276 -0.552,-0.437 -0.965,-0.581 -0.79,-0.263 -1.342,-0.082 -2.126,0.196 -0.77,0.268 -1.058,0.707 -1.739,1.155 -0.522,0.303 -0.893,0.371 -1.348,0.774 -0.276,0.242 -1.59,1.177 -2.127,1.155 -0.544,-0.021 -0.851,-0.343 -1.338,-0.382 -0.065,-0.008 -0.13,-0.008 -0.204,0 0,0 0,0 -0.005,0 -0.473,0.036 -0.696,0.269 -1.146,0.382 -1.107,0.276 -1.812,-0.115 -2.905,0.197 -0.712,0.2 -0.993,0.766 -1.73,0.771 -0.841,0.005 -1.125,-0.743 -1.932,-0.968 -0.442,-0.118 -0.702,-0.129 -1.157,-0.19 -0.749,-0.108 -1.178,-0.119 -1.926,-0.191 H 24.86 c -0.016,0.006 -0.591,0.058 -0.688,0 -0.422,-0.286 -0.722,-0.521 -1.244,-0.773 -0.575,-0.283 -0.919,-0.428 -1.547,-0.584 l 0.026,-0.381 c 0,0 0,-0.847 -0.121,-1.207 -0.115,-0.361 -0.24,-0.361 0,-1.086 0.248,-0.722 0.679,-1.182 0.679,-1.182 0.297,-0.228 0.516,-0.305 0.769,-0.58 0.51,-0.539 0.717,-0.998 0.774,-1.739 0.067,-0.972 -1.205,-1.367 -0.97,-2.316 0.209,-0.826 0.904,-0.98 1.547,-1.543 0.779,-0.67 1.468,-0.758 2.12,-1.542 0.501,-0.593 0.911,-0.965 0.97,-1.738 C 27.228,3.376 26.945,2.965 26.605,2.495 28.356,2.175 30.157,2 32,2 c 14.919,0 27.29,10.893 29.605,25.158 -0.203,0.352 -10e-4,0.796 -0.27,1.193 -0.356,0.543 -0.899,0.499 -1.346,0.968 z"
   id="path1-8"
   style="fill:url(#linearGradient13);stroke-width:0.998054;stroke-dasharray:none" /> </g></g><g
     id="SVGRepo_iconCarrier"
     transform="matrix(0.02805252,0,0,0.02493923,-0.09735549,-0.05875406)"
     style="stroke-width:0.874288;stroke-dasharray:none"><path
       opacity="0.1"
       d="m 20,7 c 0,2.20914 -3.5817,4 -8,4 C 7.58172,11 4,9.20914 4,7 4,4.79086 7.58172,3 12,3 c 4.4183,0 8,1.79086 8,4 z"
       fill="#f8ae03"
       id="path1"
       style="stroke-width:0.874288;stroke-dasharray:none" /><path
       opacity="0.1"
       d="M 19.75,13.4766 C 19.3141,14.0925 18.6191,14.6267 17.7687,15.052 16.2794,15.7966 14.2395,16.25 12,16.25 9.76047,16.25 7.72059,15.7966 6.23134,15.052 5.38086,14.6267 4.68587,14.0925 4.25,13.4766 V 17 c 0,0.9588 0.78381,1.8942 2.20495,2.6048 C 7.86113,20.3079 9.82126,20.75 12,20.75 c 2.1787,0 4.1389,-0.4421 5.5451,-1.1452 C 18.9662,18.8942 19.75,17.9588 19.75,17 Z"
       fill="#f8ae03"
       id="path2"
       style="stroke-width:0.874288;stroke-dasharray:none" /><path
       d="m 20,7 c 0,2.20914 -3.5817,4 -8,4 C 7.58172,11 4,9.20914 4,7 4,4.79086 7.58172,3 12,3 c 4.4183,0 8,1.79086 8,4 z"
       stroke="#f8ae03"
       stroke-width="2"
       id="path3"
       style="stroke-width:0.874288;stroke-dasharray:none" /><path
       d="m 20,12 c 0,2.2091 -3.5817,4 -8,4 -4.41828,0 -8,-1.7909 -8,-4"
       stroke="#f8ae03"
       stroke-width="2"
       id="path4"
       style="stroke-width:0.874288;stroke-dasharray:none" /><path
       d="m 4,7 v 10 c 0,2.2091 3.58172,4 8,4 4.4183,0 8,-1.7909 8,-4 V 7"
       stroke="#f8ae03"
       stroke-width="2"
       id="path5"
       style="stroke-width:0.874288;stroke-dasharray:none" /></g><path
     d="m 0.24224547,0.05058314 c -0.0703819,0 -0.14086865,0.02621409 -0.1934974,0.07886159 l -0.01334106,0.0134909 c -0.01071491,0.0106389 -0.01102994,0.0284076 -8.4158e-4,0.0395953 0.01029469,0.0111881 0.02731235,0.0115169 0.03802713,8.7908e-4 l 0.01344599,-0.0133813 c 0.08298755,-0.08302962 0.22942365,-0.08302962 0.31241114,0 l 0.013446,0.0133813 c 0.0107153,0.010639 0.0277324,0.0103104 0.0380271,-8.7908e-4 0.0101892,-0.0111879 0.009876,-0.0289561 -8.4157e-4,-0.0395953 L 0.4357398,0.12933484 C 0.38311406,0.07679721 0.31262722,0.05058314 0.24224547,0.05058314 Z m -8.4078e-4,0.11253412 c -0.0422292,3.2911e-4 -0.0841432,0.0176588 -0.1131362,0.0508926 l -0.0134461,0.0154651 c -0.004833,0.005483 -0.007458,0.0127233 -0.007037,0.0201815 3.1516e-4,0.007458 0.003465,0.0144781 0.008824,0.0195235 0.005252,0.005045 0.0121855,0.007678 0.0193285,0.007238 0.007142,-3.2908e-4 0.0138664,-0.003618 0.0186984,-0.009213 l 0.0133411,-0.0153557 c 0.0343505,-0.0393759 0.11187556,-0.0420084 0.14853717,1.1047e-4 l 0.013446,0.0152457 c 0.004728,0.005594 0.0114502,0.008885 0.0185937,0.009213 0.007142,4.3747e-4 0.0140761,-0.002195 0.0194338,-0.007238 0.005253,-0.005045 0.008403,-0.0120654 0.008718,-0.0195235 3.124e-4,-0.007349 -0.002206,-0.0146972 -0.007037,-0.0201815 l -0.013448,-0.0153551 C 0.3260725,0.1794599 0.28352817,0.1627881 0.24140469,0.16311726 Z m 8.4158e-4,0.11231478 c -0.0137612,0 -0.0275226,0.005483 -0.0380271,0.0164525 -0.0210094,0.0219364 -0.0210094,0.0574736 0,0.0794101 0.0210095,0.0219365 0.0550449,0.0219365 0.0760544,0 0.0210094,-0.0219364 0.0210094,-0.0574736 0,-0.0794101 -0.0105041,-0.0109683 -0.0242659,-0.0164525 -0.0380273,-0.0164525 z m 0,0"
     fill="#2e3436"
     id="path7"
     style="display:none;fill:#000000;fill-opacity:1;stroke:#000000;stroke-width:0.0453208;stroke-dasharray:none;stroke-opacity:1" /><path
     d="m 0.24224547,0.045722 c -0.0703119,0 -0.14072849,0.02673953 -0.19330488,0.08044232 L 0.0356128,0.13992562 c -0.01070424,0.0108522 -0.01101896,0.028977 -8.4074e-4,0.040389 0.01028445,0.0114123 0.02728518,0.0117477 0.0379893,8.967e-4 l 0.01343261,-0.0136495 c 0.08290498,-0.0846939 0.22919538,-0.0846939 0.3121003,0 l 0.0134326,0.0136495 c 0.0107046,0.0108522 0.0277048,0.0105171 0.0379893,-8.967e-4 0.0101791,-0.0114122 0.009866,-0.0295365 -8.4073e-4,-0.040389 L 0.43554728,0.12605222 C 0.3829739,0.07246151 0.31255719,0.045722 0.24224547,0.045722 Z m -8.3994e-4,0.11478979 c -0.0421872,3.3571e-4 -0.0840595,0.0180128 -0.11302364,0.0519127 l -0.0134327,0.0157751 c -0.004828,0.005593 -0.007451,0.0129783 -0.00703,0.020586 3.1485e-4,0.007607 0.003462,0.0147683 0.008815,0.0199148 0.005247,0.005146 0.0121734,0.007832 0.0193093,0.007383 0.007135,-3.3568e-4 0.0138526,-0.003691 0.0186798,-0.009398 l 0.0133278,-0.0156635 c 0.0343163,-0.0401652 0.11176425,-0.0428504 0.14838938,1.1268e-4 l 0.0134326,0.0155513 c 0.004723,0.005706 0.0114388,0.009063 0.0185752,0.009398 0.007135,4.4624e-4 0.0140621,-0.002239 0.0194145,-0.007383 0.005248,-0.005146 0.008395,-0.0123072 0.008709,-0.0199148 3.1209e-4,-0.007496 -0.002204,-0.0149918 -0.00703,-0.020586 L 0.35610761,0.21253716 C 0.32598909,0.17718201 0.28348709,0.16017603 0.24140553,0.16051179 Z m 8.4074e-4,0.11456606 c -0.0137475,0 -0.0274952,0.005593 -0.0379893,0.0167823 -0.0209885,0.0223761 -0.0209885,0.0586256 0,0.0810018 0.0209886,0.0223762 0.0549901,0.0223762 0.0759787,0 0.0209885,-0.0223761 0.0209885,-0.0586256 0,-0.0810018 -0.0104937,-0.0111882 -0.0242418,-0.0167823 -0.0379894,-0.0167823 z m 0,0"
     fill="#2e3436"
     id="path1-0"
     style="display:none;fill:#ff28b2;fill-opacity:1;stroke-width:0.0277392" /><g
     style="fill:#1d00dd;fill-opacity:1;stroke:#000000;stroke-width:3.39107533;stroke-dasharray:none;stroke-opacity:1"
     id="g42"
     transform="matrix(0.02444156,0,0,0.02815063,0.06625249,0.07051652)"><path
       d="M 6.99514,1.80245 6.2576,3.98086 c 0.15422,0.0866 0.32769,0.14517 0.50913,0.1732 V 7.51525 L 5.78804,8.08032 V 9.16196 L 2.91913,10.81834 C 2.80412,10.67521 2.66662,10.55428 2.51454,10.464 L 1,12.19755 3.25533,11.74707 c -0.002,-0.17683 -0.0381,-0.35636 -0.10457,-0.52751 l 2.82694,-1.63214 1.02069,0.58932 1.02069,-0.58932 2.82694,1.63214 c -0.0664,0.17116 -0.10244,0.35069 -0.10459,0.52755 L 13,12.19196 11.48222,10.46402 c -0.15208,0.0903 -0.28956,0.2112 -0.40457,0.35433 L 8.20877,9.16199 V 8.08032 L 7.23002,7.51522 V 4.15406 c 0.18145,-0.028 0.35493,-0.0866 0.50916,-0.1732 z"
       id="path1-4"
       style="fill:#1d00dd;fill-opacity:1;stroke:#000000;stroke-width:3.39107533;stroke-dasharray:none;stroke-opacity:1" /></g><g
     style="fill:#dd0000;fill-opacity:1;stroke:#17dd00;stroke-width:1.63533;stroke-dasharray:none;stroke-opacity:1"
     id="g43"
     transform="matrix(0.02444156,0,0,0.02815063,0.06625249,0.07051652)"><path
       d="M 6.99514,1.80245 6.2576,3.98086 c 0.15422,0.0866 0.32769,0.14517 0.50913,0.1732 V 7.51525 L 5.78804,8.08032 V 9.16196 L 2.91913,10.81834 C 2.80412,10.67521 2.66662,10.55428 2.51454,10.464 L 1,12.19755 3.25533,11.74707 c -0.002,-0.17683 -0.0381,-0.35636 -0.10457,-0.52751 l 2.82694,-1.63214 1.02069,0.58932 1.02069,-0.58932 2.82694,1.63214 c -0.0664,0.17116 -0.10244,0.35069 -0.10459,0.52755 L 13,12.19196 11.48222,10.46402 c -0.15208,0.0903 -0.28956,0.2112 -0.40457,0.35433 L 8.20877,9.16199 V 8.08032 L 7.23002,7.51522 V 4.15406 c 0.18145,-0.028 0.35493,-0.0866 0.50916,-0.1732 z"
       id="path42"
       style="fill:#dd0000;fill-opacity:1;stroke:#17dd00;stroke-width:1.63533;stroke-dasharray:none;stroke-opacity:1" /></g></svg>
